<svg xmlns="http://www.w3.org/2000/svg" width="16" height="24" viewBox="0 0 16 24"><defs><style>.a{fill:#7dca2c;}</style></defs><path class="a" d="M8.011,20.163,3.685,15.715l1.4-1.289,2.922,3,2.9-3,1.4,1.285ZM16,18.375V5.625A5.712,5.712,0,0,0,10.217,0H5.783A5.712,5.712,0,0,0,0,5.625v12.75A5.712,5.712,0,0,0,5.783,24h4.434A5.712,5.712,0,0,0,16,18.375Zm-5.783-16.5a3.808,3.808,0,0,1,3.855,3.75v12.75a3.808,3.808,0,0,1-3.855,3.75H5.783a3.808,3.808,0,0,1-3.855-3.75V5.625a3.808,3.808,0,0,1,3.855-3.75ZM8,3.8a.938.938,0,1,0,.964.938A.951.951,0,0,0,8,3.8Zm0,3.75a.938.938,0,1,0,.964.938A.951.951,0,0,0,8,7.547ZM8,11.3a.938.938,0,1,0,.964.938A.951.951,0,0,0,8,11.3Zm0,0"/></svg>