<svg xmlns="http://www.w3.org/2000/svg" width="24" height="24" viewBox="0 0 24 24"><defs><style>.a{fill:#71b727;}</style></defs><path class="a" d="M12,0A12,12,0,1,0,24,12,12.014,12.014,0,0,0,12,0Zm0,21.818A9.818,9.818,0,1,1,21.818,12,9.829,9.829,0,0,1,12,21.818Z"/><path class="a" d="M88.383,102.59l-6.171,6.171-2.828-2.828a1.091,1.091,0,1,0-1.543,1.543l3.6,3.6a1.091,1.091,0,0,0,.771.32h0a1.091,1.091,0,0,0,.771-.319l6.943-6.942a1.091,1.091,0,0,0-1.543-1.543Z" transform="translate(-71.884 -94.833)"/></svg>